<svg width="24" height="24" xmlns="http://www.w3.org/2000/svg">

 <g>
  <title>background</title>
  <rect fill="none" id="canvas_background" height="602" width="802" y="-1" x="-1"/>
 </g>
 <g>
  <title>Layer 1</title>
  <path id="svg_1" fill="none" d="m0,0l24,0l0,24l-24,0l0,-24z"/>
  <path id="svg_2" d="m14,17l-10,0l0,2l10,0l0,-2zm6,-8l-16,0l0,2l16,0l0,-2zm-16,6l16,0l0,-2l-16,0l0,2zm0,-10l0,2l16,0l0,-2l-16,0z"/>
  <line transform="rotate(135 17.64794158935547,18.850177764892578) " stroke="#000" stroke-linecap="undefined" stroke-linejoin="undefined" id="svg_16" y2="18.85018" x2="20.52619" y1="18.85018" x1="14.76969" fill-opacity="null" stroke-opacity="null" stroke-width="1.5" fill="none"/>
  <line stroke="#000" transform="rotate(45 17.573034286499034,18.850175857543938) " stroke-linecap="undefined" stroke-linejoin="undefined" id="svg_17" y2="18.85018" x2="20.45128" y1="18.85018" x1="14.69479" fill-opacity="null" stroke-opacity="null" stroke-width="1.5" fill="none"/>
 </g>
</svg>