<?xml version="1.0" standalone="no"?>
<svg viewBox="0 0 200 200" xmlns="http://www.w3.org/2000/svg">
  <path fill="rgba(245, 245, 245, 0.1)" d="M23.6,-30.1C35.9,-23.6,54.8,-23.8,65.6,-15.5C76.4,-7.1,79,9.7,73.7,23.4C68.5,37.1,55.4,47.7,41.8,54.4C28.2,61.2,14.1,64.2,0,64.2C-14.2,64.3,-28.4,61.4,-39.5,53.9C-50.5,46.3,-58.5,33.9,-62.1,20.7C-65.6,7.5,-64.8,-6.7,-60.9,-20.2C-57.1,-33.7,-50.2,-46.6,-39.5,-53.7C-28.8,-60.8,-14.4,-62.1,-4.4,-56.1C5.7,-50.1,11.3,-36.7,23.6,-30.1Z" transform="translate(100 100)" />
</svg>
