<?xml version="1.0" standalone="no"?>
<svg viewBox="0 0 200 200" xmlns="http://www.w3.org/2000/svg">
  <path fill="rgba(245, 245, 245, 0.1)" d="M39.2,-63C50.1,-53.9,57.8,-41.9,64.8,-28.9C71.8,-15.9,78.1,-1.9,72.4,7.7C66.8,17.2,49.1,22.2,39.6,35.8C30.2,49.4,28.8,71.6,19.3,81.7C9.8,91.7,-8,89.7,-17.7,78.5C-27.4,67.3,-29,46.9,-34.6,33.7C-40.3,20.5,-49.9,14.6,-53.9,6C-57.8,-2.5,-56,-13.6,-50.8,-22.5C-45.7,-31.4,-37.2,-38.1,-28.2,-48.1C-19.2,-58,-9.6,-71.3,2.3,-74.9C14.1,-78.4,28.2,-72.2,39.2,-63Z" transform="translate(100 100)" />
</svg>
