<?xml version="1.0" standalone="no"?>
<svg viewBox="0 0 200 200" xmlns="http://www.w3.org/2000/svg">
  <path fill="rgba(245, 245, 245, 0.1)" d="M37.5,-53.6C46.6,-45.1,50.5,-31.4,51.7,-18.9C52.9,-6.4,51.3,4.9,48.9,17C46.5,29.1,43.2,42,34.9,55C26.6,68.1,13.3,81.3,1.8,78.8C-9.7,76.4,-19.4,58.2,-34.3,47.3C-49.1,36.4,-69.1,32.7,-79.7,20.9C-90.4,9.2,-91.7,-10.5,-85.1,-26.7C-78.5,-42.8,-64,-55.4,-48.4,-61.8C-32.9,-68.3,-16.5,-68.6,-1.1,-67.1C14.2,-65.5,28.5,-62.1,37.5,-53.6Z" transform="translate(100 100)" />
</svg>
